<?xml version="1.0" encoding="UTF-8"?>
<svg width="513px" height="470px" viewBox="0 0 513 470" version="1.1" xmlns="http://www.w3.org/2000/svg" xmlns:xlink="http://www.w3.org/1999/xlink">
    <!-- Generator: Sketch 3.8.1 (29687) - http://www.bohemiancoding.com/sketch -->
    <title>Untitled</title>
    <desc>Created with Sketch.</desc>
    <defs></defs>
    <g id="Page-1" stroke="none" stroke-width="1" fill="none" fill-rule="evenodd">
        <g id="lotus">
            <g id="Layer_1">
                <path d="M503.284,220.523 C472.603,219.45 442.583,223.96 414.377,233.597 C413.816,203.472 407.764,173.94 396.324,145.628 C394.455,141.005 389.199,138.771 384.567,140.638 C366.699,147.857 349.965,156.975 334.494,167.877 C315.922,131.247 291.707,97.867 262.375,68.546 C258.847,65.02 253.131,65.02 249.606,68.547 C220.261,97.892 196.048,131.267 177.49,167.863 C162.028,156.968 145.301,147.854 127.438,140.638 C122.811,138.77 117.551,141.004 115.682,145.628 C104.223,173.986 98.168,203.567 97.623,233.743 C69.802,224.182 39.821,219.439 8.716,220.523 C3.731,220.698 -0.168,224.879 0.006,229.863 C4.673,363.498 114.864,469.029 247.555,469.029 C250.356,469.029 253.181,468.978 256.001,468.885 C258.828,468.98 261.64,469.029 264.448,469.029 C397.127,469.029 507.33,363.491 511.996,229.863 C512.168,224.879 508.269,220.697 503.284,220.523 L503.284,220.523 Z M129.143,161.001 C154.589,172.456 177.393,188.186 197.034,207.849 C218.12,228.923 234.657,253.552 246.258,281.082 C238.519,301.073 233.442,321.736 231.075,342.815 C204.454,297.612 163.938,261.692 115.656,240.736 C115.36,213.51 119.886,186.755 129.143,161.001 L129.143,161.001 Z M18.56,238.432 C76.513,238.68 131.427,260.404 174.054,300.156 C216.684,339.909 242.187,393.166 246.474,450.966 C127.006,450.404 27.453,357.57 18.56,238.432 L18.56,238.432 Z M209.806,195.079 C204.143,189.41 198.231,184.052 192.092,178.996 C208.633,145.64 230.085,115.043 255.993,87.859 C281.887,115.024 303.337,145.623 319.891,179.01 C313.758,184.061 307.851,189.412 302.192,195.075 C283.359,213.898 267.882,235.367 255.999,259.073 C244.126,235.379 228.65,213.911 209.806,195.079 L209.806,195.079 Z M255.964,401.209 C253.616,392.845 250.844,384.665 247.668,376.692 C247.609,374.763 247.579,372.724 247.579,370.488 C247.579,340.891 253.229,311.911 264.37,284.35 C276.04,255.473 293.061,229.734 314.964,207.845 C334.614,188.183 357.421,172.454 382.865,161.001 C392.1,186.699 396.624,213.393 396.35,240.557 C370.629,251.684 346.734,267.265 325.631,286.945 C291.849,318.446 268.054,357.817 255.964,401.209 L255.964,401.209 Z M265.527,450.965 C269.815,393.166 295.315,339.909 337.946,300.155 C380.577,260.4 435.482,238.676 493.441,238.431 C484.546,357.577 385.005,450.415 265.527,450.965 L265.527,450.965 Z" id="Shape" fill="#E09F7D"></path>
                <circle id="Oval" fill="#FFFFFF" cx="14.088" cy="185.106" r="9.031"></circle>
                <circle id="Oval" fill="#FFFFFF" cx="124.058" cy="84.841" r="9.031"></circle>
                <circle id="Oval" fill="#FFFFFF" cx="255.992" cy="10.002" r="9.031"></circle>
                <circle id="Oval" fill="#FFFFFF" cx="387.949" cy="84.841" r="9.031"></circle>
                <circle id="Oval" fill="#FFFFFF" cx="497.896" cy="185.106" r="9.031"></circle>
            </g>
        </g>
    </g>
</svg>